<?xml version="1.0" standalone="no"?>
<!DOCTYPE svg PUBLIC "-//W3C//DTD SVG 20010904//EN"
 "http://www.w3.org/TR/2001/REC-SVG-20010904/DTD/svg10.dtd">
<svg version="1.0" xmlns="http://www.w3.org/2000/svg"
 width="458.000000pt" height="791.000000pt" viewBox="0 0 458.000000 791.000000"
 preserveAspectRatio="xMidYMid meet">

<g transform="translate(0.000000,791.000000) scale(0.100000,-0.100000)"
fill="#000000" stroke="none">
<path d="M2948 7609 c-15 -6 -42 -32 -60 -57 l-33 -47 -3 -460 c-2 -253 -6
-484 -9 -513 -3 -35 -1 -58 8 -68 10 -13 10 -17 -1 -24 -11 -7 -29 6 -66 45
-28 30 -71 63 -95 74 -24 11 -53 28 -64 38 -75 70 -236 83 -290 23 -17 -18
-33 -140 -19 -141 40 -2 101 -13 109 -19 6 -4 37 -10 70 -14 151 -16 352 -84
340 -114 -4 -11 -2 -12 8 -4 11 10 13 2 10 -46 -6 -105 -1 -287 8 -290 5 -2 9
-37 9 -78 0 -62 3 -77 20 -91 15 -13 20 -30 20 -66 0 -34 3 -46 12 -41 8 5 9
2 5 -9 -3 -9 -2 -19 3 -22 6 -4 10 -12 10 -18 0 -7 -4 -6 -10 3 -17 26 -11 0
7 -30 16 -27 56 -54 66 -44 2 3 2 55 0 117 -6 120 3 174 30 191 13 8 31 3 83
-24 67 -36 80 -46 125 -96 14 -16 41 -41 60 -56 19 -14 43 -44 53 -65 11 -21
31 -54 45 -73 31 -42 80 -153 86 -195 3 -16 9 -77 15 -133 5 -57 13 -108 16
-114 8 -12 141 114 175 167 41 62 105 119 124 111 14 -5 17 -17 13 -64 -3 -44
-17 -84 -60 -173 -31 -63 -65 -135 -74 -160 -16 -40 -77 -122 -131 -177 -13
-12 -23 -26 -23 -31 0 -5 -17 -20 -37 -32 -44 -27 -105 -72 -148 -110 -16 -14
-50 -38 -75 -53 -47 -27 -35 -35 26 -17 40 11 59 1 46 -25 -5 -11 -14 -30 -19
-44 -20 -51 -121 -269 -160 -345 -28 -54 -156 -239 -210 -303 -29 -35 -53 -67
-53 -72 0 -11 -105 -127 -259 -286 -120 -123 -200 -180 -286 -203 -50 -13
-227 -17 -246 -5 -8 4 -22 10 -31 11 -52 8 -120 54 -203 139 -124 127 -245
261 -245 271 0 5 -32 51 -71 103 -104 138 -244 417 -307 610 -28 87 -54 255
-50 327 3 56 2 58 -23 61 -18 2 -29 -4 -39 -23 -24 -46 -82 -27 -152 50 -23
25 -55 54 -72 65 -17 10 -41 36 -54 57 -89 146 -95 160 -160 339 l-26 72 37
56 c44 66 84 97 98 75 5 -8 9 -25 9 -39 0 -14 6 -35 13 -47 6 -12 22 -40 34
-62 39 -71 108 -142 167 -173 34 -17 50 -19 105 -14 36 4 70 11 74 15 5 5 1
23 -8 40 -8 17 -18 60 -21 94 -3 34 -11 80 -19 102 -12 36 -24 98 -41 212 -3
24 -1 57 4 75 6 18 13 50 17 70 5 33 29 71 107 172 13 16 46 53 73 82 l51 54
13 -143 c7 -78 19 -180 26 -227 8 -47 15 -104 17 -127 1 -24 3 -43 5 -43 1 0
12 17 23 38 12 20 41 66 66 102 82 120 108 237 134 613 9 132 11 141 56 243
58 133 196 329 295 418 58 52 99 103 99 122 0 29 -155 -22 -202 -66 -13 -12
-36 -27 -53 -35 -28 -12 -168 -130 -228 -191 -73 -77 -176 -193 -202 -229 -16
-22 -46 -55 -67 -73 -21 -19 -50 -55 -65 -80 -15 -26 -37 -58 -50 -71 -22 -23
-24 -23 -43 -6 -27 25 -34 90 -21 208 19 182 91 348 201 466 33 35 60 69 60
76 0 8 30 36 68 64 37 28 90 69 117 91 49 39 318 179 384 199 19 6 45 11 59
11 14 0 23 3 19 6 -9 10 -115 17 -267 18 -111 1 -152 -3 -230 -23 -134 -33
-289 -81 -330 -103 -19 -10 -43 -18 -53 -18 -43 0 -217 -111 -217 -139 0 -11
16 -40 35 -65 19 -26 36 -51 38 -57 2 -9 -33 -25 -103 -48 -74 -24 -123 -57
-172 -115 -28 -33 -57 -66 -64 -71 -20 -17 -54 -79 -54 -98 0 -9 -11 -34 -23
-55 -13 -20 -36 -66 -50 -102 -14 -36 -37 -89 -52 -117 -36 -75 -31 -85 19
-33 131 137 306 278 306 246 0 -7 -8 -35 -19 -62 -10 -27 -31 -89 -46 -139
-15 -49 -37 -108 -48 -130 -31 -61 -77 -175 -91 -225 -8 -25 -40 -108 -73
-185 -33 -77 -66 -165 -72 -195 -14 -62 -29 -118 -38 -139 -3 -8 21 6 53 31
33 25 75 53 94 63 19 10 49 29 66 41 17 13 34 24 37 24 4 0 7 -17 7 -37 0 -21
11 -65 25 -98 l24 -60 -37 -16 c-46 -20 -65 -41 -91 -101 -28 -67 -35 -102
-35 -203 -1 -96 7 -163 23 -192 6 -10 17 -45 26 -78 9 -33 29 -75 45 -95 15
-19 35 -49 44 -67 9 -18 25 -37 35 -42 10 -6 28 -26 39 -45 23 -39 104 -102
189 -146 32 -16 65 -36 74 -43 23 -17 44 -64 59 -127 14 -60 60 -172 119 -290
21 -41 48 -102 61 -135 27 -69 42 -95 85 -150 18 -22 36 -51 40 -64 4 -13 33
-51 64 -85 31 -34 67 -78 80 -100 29 -47 338 -357 372 -372 99 -46 103 -47
251 -40 79 4 161 12 182 17 48 13 134 66 198 123 25 22 64 55 86 71 22 17 47
41 55 55 9 14 35 40 59 59 24 19 57 52 73 74 17 22 57 69 90 106 33 36 69 82
79 101 11 19 34 51 51 71 18 20 45 58 60 85 37 66 76 125 96 145 9 9 18 22 21
29 5 16 40 0 81 -38 21 -20 27 -35 27 -67 0 -23 7 -66 16 -96 19 -63 15 -172
-9 -234 -8 -22 -26 -69 -40 -104 -13 -35 -30 -69 -38 -75 -19 -15 -101 -114
-124 -148 -9 -16 -23 -28 -30 -28 -21 0 -217 -103 -276 -145 -31 -22 -71 -60
-90 -84 -19 -24 -58 -69 -86 -99 -29 -29 -53 -58 -53 -63 0 -6 -4 -7 -10 -4
-5 3 -10 1 -10 -5 0 -6 -4 -9 -9 -6 -5 3 -15 -2 -22 -11 -13 -15 -11 -16 11
-10 14 3 42 9 62 12 21 4 35 11 32 16 -3 5 1 6 9 3 8 -3 21 2 30 10 8 8 17 13
20 9 3 -3 19 2 36 10 17 9 44 18 61 22 16 4 30 10 30 13 0 10 48 29 91 36 39
7 120 63 154 106 11 14 31 36 44 49 24 25 24 25 32 4 4 -12 16 -26 26 -31 17
-10 17 -12 -5 -35 l-23 -25 50 -13 c28 -7 51 -18 51 -24 0 -14 -33 -43 -85
-75 -22 -13 -42 -27 -45 -32 -3 -4 -46 -26 -95 -48 -50 -22 -112 -52 -140 -66
-176 -91 -227 -113 -259 -116 -20 -1 -36 -7 -36 -12 0 -6 -5 -5 -11 1 -14 14
-42 5 -32 -10 3 -6 1 -7 -5 -3 -7 4 -71 -22 -144 -57 -73 -35 -143 -67 -156
-71 -12 -4 -20 -12 -17 -17 4 -5 -4 -8 -17 -6 -15 1 -22 -3 -20 -11 1 -8 -2
-11 -8 -7 -6 4 -18 1 -27 -7 -14 -11 -15 -11 -9 0 7 11 4 11 -12 1 -12 -7 -18
-17 -16 -21 3 -4 -5 -8 -18 -9 -36 -1 -70 -9 -82 -18 -6 -5 -29 -14 -51 -21
-22 -7 -45 -16 -51 -21 -6 -5 -14 -6 -17 -2 -4 3 -7 -2 -7 -13 0 -11 9 -25 20
-32 12 -7 25 -24 30 -37 14 -37 43 -43 170 -33 195 15 290 -2 290 -51 0 -11
-19 -35 -41 -55 -40 -34 -45 -35 -98 -30 -34 4 -70 15 -93 30 -21 13 -42 24
-48 24 -16 0 22 -49 38 -50 7 0 10 -4 7 -10 -3 -5 4 -11 17 -11 17 -1 18 -3 6
-6 -10 -2 -18 -10 -18 -17 0 -7 -7 -21 -15 -32 -14 -18 -14 -18 -8 4 4 16 1
22 -11 22 -9 0 -16 -5 -16 -10 0 -6 -12 -29 -26 -51 -37 -59 -57 -121 -43
-130 6 -3 7 -8 2 -10 -5 -2 -25 -38 -45 -79 -78 -164 -98 -207 -98 -214 0 -5
-6 -22 -14 -39 -29 -66 -59 -241 -72 -426 -8 -108 0 -113 41 -23 14 31 55 113
89 182 35 69 67 136 71 150 4 14 20 53 36 88 16 35 29 66 29 69 0 3 15 29 34
57 18 28 48 89 66 136 19 47 41 96 50 110 9 14 36 67 61 117 28 60 49 91 57
88 7 -3 43 -1 80 5 36 5 68 8 70 6 2 -2 -28 -67 -67 -143 -39 -77 -74 -159
-80 -183 -5 -23 -14 -47 -20 -53 -6 -6 -11 -17 -11 -24 0 -7 -16 -33 -35 -59
-19 -25 -35 -56 -35 -69 0 -13 -7 -30 -15 -38 -8 -8 -12 -17 -9 -20 3 -3 1
-13 -5 -24 -6 -10 -22 -45 -36 -78 -15 -33 -35 -67 -44 -75 -39 -32 -129 -230
-115 -252 3 -4 1 -8 -4 -8 -5 0 -45 -73 -90 -163 l-81 -163 13 -49 c8 -28 26
-79 40 -114 14 -36 26 -72 26 -81 0 -8 16 -30 35 -49 19 -18 35 -38 35 -45 0
-7 11 -26 25 -42 14 -16 25 -34 25 -40 0 -7 8 -22 18 -34 l18 -22 18 28 c10
16 29 40 42 54 12 14 35 50 50 80 14 30 45 80 68 110 23 30 63 91 89 135 25
44 64 104 86 134 23 30 41 59 41 64 0 12 91 127 100 127 4 0 11 -12 16 -28 10
-38 14 -92 5 -92 -4 0 -7 -9 -8 -21 -1 -12 -10 -27 -19 -33 -9 -7 -14 -18 -10
-24 3 -6 -2 -16 -12 -21 -11 -6 -25 -30 -32 -55 -13 -47 -65 -132 -113 -186
-15 -17 -37 -49 -49 -73 -12 -23 -47 -76 -78 -117 -68 -90 -101 -146 -92 -155
22 -22 235 -102 305 -115 115 -21 133 -15 235 87 49 49 97 103 105 120 9 17
39 57 66 88 58 66 88 146 97 257 10 120 -29 322 -72 383 -26 35 -44 96 -44
145 0 34 -41 155 -66 195 -7 11 -18 40 -24 65 -7 25 -28 68 -48 95 -48 67 -99
180 -116 257 -23 103 -56 209 -71 232 -8 11 -15 34 -15 51 1 26 10 36 78 80
42 27 97 64 121 83 64 48 220 204 227 226 4 11 25 43 47 70 22 28 51 74 64
102 29 63 44 76 115 102 32 11 79 36 105 55 26 19 58 37 70 41 19 6 73 65 73
81 0 4 18 27 39 53 50 60 106 183 120 264 31 184 35 269 17 383 -20 123 -57
241 -93 298 -69 110 -184 236 -238 261 -19 9 -35 19 -35 21 0 5 29 70 71 160
13 28 28 66 34 85 9 31 20 40 98 77 85 41 104 57 172 146 75 98 106 145 116
177 6 19 19 44 29 55 26 30 96 174 110 225 7 25 15 54 18 65 4 11 7 68 7 127
0 104 -1 107 -30 144 -37 45 -89 66 -172 67 -58 1 -62 3 -56 22 3 11 21 68 39
127 18 58 42 126 53 151 25 55 62 153 103 272 28 81 32 102 32 210 0 105 -3
125 -22 162 -33 64 -26 74 21 29 48 -47 103 -127 138 -203 13 -29 27 -52 30
-53 12 0 31 211 24 267 -8 72 -24 101 -102 196 -75 92 -207 185 -375 266 -76
36 -118 62 -118 72 0 41 70 74 254 119 l69 16 -39 32 c-36 30 -80 46 -318 117
-56 17 -198 20 -279 4 -51 -9 -62 -8 -107 13 -27 13 -50 28 -50 35 0 19 56 54
97 60 38 6 53 17 53 39 0 18 -138 65 -205 69 -33 3 -72 0 -87 -6z m-243 -4649
c3 -5 -1 -10 -10 -10 -9 0 -13 5 -10 10 3 6 8 10 10 10 2 0 7 -4 10 -10z m205
-506 c0 -8 -5 -12 -10 -9 -6 4 -8 11 -5 16 9 14 15 11 15 -7z m-346 -18 c51
-8 107 -34 114 -54 6 -18 -11 -15 -70 12 -29 14 -65 27 -80 31 -15 4 -33 14
-40 23 -11 13 -10 14 7 5 11 -6 42 -14 69 -17z m-239 -256 c-3 -5 -1 -18 5
-29 7 -13 7 -22 0 -26 -5 -3 -10 -15 -10 -25 0 -23 -16 -35 -26 -19 -4 8 -3 9
4 5 13 -8 16 6 5 18 -5 4 -9 12 -9 17 -1 5 -2 12 -3 15 0 4 -9 0 -18 -7 -17
-13 -17 -12 -2 6 9 11 19 28 22 38 4 9 14 17 22 17 9 0 13 -4 10 -10z m-48
-85 c0 -8 -4 -15 -9 -15 -4 0 -8 7 -8 15 0 8 4 15 8 15 5 0 9 -7 9 -15z m0
-85 c-1 -11 -5 -20 -9 -20 -10 0 -10 4 -2 24 8 22 13 20 11 -4z"/>
<path d="M2013 6408 c-61 -63 -97 -176 -123 -379 -14 -115 -19 -125 -49 -110
-34 19 -78 120 -86 201 -8 79 -19 84 -30 13 -4 -27 -11 -53 -17 -60 -5 -6 -12
-36 -15 -65 -4 -45 2 -71 36 -170 41 -115 42 -117 26 -155 -9 -21 -30 -59 -47
-86 -20 -31 -27 -52 -21 -58 19 -19 43 4 75 70 17 36 34 68 36 71 2 2 34 -28
73 -68 38 -39 72 -72 76 -72 5 0 31 -12 58 -25 28 -14 57 -25 66 -25 9 0 36
-7 59 -15 24 -8 45 -13 48 -11 2 3 -4 22 -15 43 -20 39 -70 192 -98 298 -8 33
-18 96 -22 141 l-6 80 40 12 c22 7 70 12 107 12 l66 0 -33 48 c-45 66 -73 126
-111 240 -19 56 -39 98 -47 100 -8 1 -29 -12 -46 -30z"/>
<path d="M2880 5730 c0 -5 5 -10 10 -10 6 0 10 5 10 10 0 6 -4 10 -10 10 -5 0
-10 -4 -10 -10z"/>
<path d="M2995 5570 c3 -5 8 -10 11 -10 2 0 4 5 4 10 0 6 -5 10 -11 10 -5 0
-7 -4 -4 -10z"/>
<path d="M2916 5441 c-3 -4 -37 -11 -76 -15 -69 -6 -152 -38 -192 -74 -23 -20
-23 -74 0 -95 16 -15 21 -14 59 3 35 15 118 36 233 57 59 11 259 14 276 5 11
-5 51 -13 89 -16 l70 -7 -35 31 c-19 17 -54 40 -77 51 -24 11 -45 24 -48 29
-16 27 -285 55 -299 31z"/>
<path d="M1565 5430 c-243 -34 -234 -34 -255 -15 -22 20 -25 10 -11 -28 15
-38 40 -57 74 -57 18 0 74 -10 124 -22 l93 -22 -42 -19 c-23 -11 -50 -29 -60
-41 -62 -72 -108 -165 -108 -219 0 -23 4 -27 28 -27 28 0 29 1 118 134 29 43
90 95 130 112 41 17 179 18 291 3 84 -12 127 -5 152 25 12 14 -91 97 -175 140
-76 39 -228 55 -359 36z m-27 -269 c-13 -17 -29 -30 -37 -30 -9 -1 -4 10 14
29 37 39 54 39 23 1z"/>
<path d="M2870 5186 c-105 -50 -115 -53 -106 -31 10 27 -9 16 -52 -30 l-42
-45 29 0 c17 0 57 -17 93 -39 86 -54 189 -84 270 -78 59 3 64 6 83 37 11 18
35 49 53 68 38 40 40 61 10 89 -53 46 -97 64 -170 69 -70 5 -77 3 -168 -40z
m-5 -98 c-4 -24 -9 -45 -11 -47 -7 -8 -74 51 -68 60 8 13 43 28 67 28 16 1 18
-4 12 -41z"/>
<path d="M1680 5166 c-9 -24 -42 -42 -59 -32 -5 3 -22 3 -39 0 -27 -5 -29 -9
-27 -44 3 -54 35 -111 74 -134 40 -23 156 -26 217 -6 68 23 85 105 31 162 -52
55 -80 70 -120 63 -21 -4 -37 -3 -41 4 -11 18 -26 13 -36 -13z"/>
<path d="M2204 5116 c-27 -20 -34 -53 -41 -211 -3 -71 -10 -135 -15 -142 -5
-7 -7 -17 -4 -22 4 -5 2 -12 -4 -16 -5 -3 -10 -12 -10 -20 0 -28 -42 -125 -74
-172 -52 -77 -59 -102 -45 -159 10 -37 25 -61 66 -101 54 -54 93 -81 93 -65 0
5 -6 15 -14 21 -8 7 -19 32 -24 57 -16 73 8 143 56 168 60 31 69 52 77 176 10
133 14 359 7 411 -2 20 -14 48 -25 63 -20 25 -24 26 -43 12z"/>
<path d="M2825 4169 c-4 -6 -5 -13 -2 -15 15 -15 -91 -144 -117 -144 -7 0 -39
-20 -72 -43 -112 -83 -265 -124 -428 -115 -48 2 -86 2 -86 -2 0 -3 24 -17 53
-30 43 -20 71 -25 166 -27 62 -1 119 1 125 4 6 4 17 9 24 10 26 6 47 12 52 14
3 1 10 3 15 4 39 5 188 90 230 130 28 26 69 56 92 67 52 23 55 27 47 75 -8 53
-80 104 -99 72z"/>
<path d="M1587 3523 c4 -21 7 -48 7 -60 1 -12 5 -18 9 -14 5 5 4 25 -1 44 -7
26 -7 37 1 41 8 3 8 5 -1 5 -7 1 -10 6 -7 11 3 6 1 10 -4 10 -7 0 -8 -14 -4
-37z"/>
<path d="M1650 3446 c0 -2 7 -7 16 -10 8 -3 12 -2 9 4 -6 10 -25 14 -25 6z"/>
<path d="M1595 3420 c3 -5 8 -10 11 -10 2 0 4 5 4 10 0 6 -5 10 -11 10 -5 0
-7 -4 -4 -10z"/>
<path d="M1666 3408 c3 -5 10 -6 15 -3 13 9 11 12 -6 12 -8 0 -12 -4 -9 -9z"/>
<path d="M1605 3300 c4 -36 9 -74 11 -85 2 -11 9 -48 15 -82 6 -35 15 -63 20
-63 4 0 6 -7 3 -15 -4 -8 -2 -21 4 -28 5 -6 13 -28 17 -47 4 -19 15 -51 25
-70 10 -19 44 -88 75 -153 32 -65 63 -121 69 -123 7 -3 66 15 132 40 170 64
184 69 184 79 0 4 5 5 11 2 13 -9 121 44 114 55 -3 5 3 8 14 7 31 -2 110 43
104 60 -7 19 -29 10 -25 -11 2 -10 -4 -16 -14 -16 -10 0 -15 3 -11 6 3 4 0 13
-8 21 -11 10 -27 12 -66 7 -37 -5 -50 -4 -45 4 4 7 -11 19 -37 31 -24 11 -49
27 -56 35 -8 9 -18 13 -24 9 -5 -3 -7 -1 -4 4 4 6 -3 18 -16 26 -12 9 -34 27
-50 40 -15 14 -41 30 -57 37 -16 7 -27 16 -24 21 3 5 -2 12 -11 15 -8 4 -22
18 -31 33 -8 14 -13 19 -11 11 4 -17 -15 -40 -33 -40 -7 0 -30 16 -53 35 -22
19 -47 35 -54 35 -7 0 -13 5 -13 10 0 6 -9 10 -20 10 -11 0 -20 7 -20 15 0 9
-12 18 -30 22 -21 4 -30 11 -30 24 0 12 -7 19 -20 19 -11 0 -21 3 -21 8 -1 4
-3 20 -5 36 -1 15 -6 31 -10 35 -3 3 -3 -23 1 -59z m42 -92 c-3 -8 -6 -5 -6 6
-1 11 2 17 5 13 3 -3 4 -12 1 -19z m408 -198 c3 -6 -1 -7 -9 -4 -18 7 -21 14
-7 14 6 0 13 -4 16 -10z m220 -170 c3 -5 1 -10 -4 -10 -6 0 -11 5 -11 10 0 6
2 10 4 10 3 0 8 -4 11 -10z"/>
<path d="M1793 3265 c7 -14 15 -25 19 -25 4 0 2 11 -4 25 -6 14 -15 25 -19 25
-4 0 -2 -11 4 -25z"/>
<path d="M2258 2893 c7 -3 16 -2 19 1 4 3 -2 6 -13 5 -11 0 -14 -3 -6 -6z"/>
<path d="M2221 2184 c0 -11 3 -14 6 -6 3 7 2 16 -1 19 -3 4 -6 -2 -5 -13z"/>
</g>
</svg>
